<?xml version="1.0" standalone="no"?>
<!DOCTYPE svg PUBLIC "-//W3C//DTD SVG 20010904//EN"
 "http://www.w3.org/TR/2001/REC-SVG-20010904/DTD/svg10.dtd">
<svg version="1.0" xmlns="http://www.w3.org/2000/svg"
 width="470.000000pt" height="352.000000pt" viewBox="0 0 470.000000 352.000000"
 preserveAspectRatio="xMidYMid meet">

<g transform="translate(0.000000,352.000000) scale(0.100000,-0.100000)"
fill="#000000" stroke="none">
<path d="M4001 3499 c-11 -11 -29 -19 -39 -19 -12 0 -22 -9 -25 -22 -4 -13
-13 -50 -21 -83 -8 -33 -22 -78 -30 -100 -20 -54 -20 -129 0 -149 8 -9 11 -16
5 -16 -26 0 -22 -50 10 -121 49 -112 79 -191 79 -209 0 -8 -25 -38 -56 -65
-30 -28 -63 -58 -72 -67 -9 -10 -24 -18 -34 -18 -9 0 -21 -6 -25 -14 -4 -7
-33 -26 -63 -41 -62 -32 -233 -198 -292 -284 -17 -24 -16 -26 18 -64 24 -26
33 -44 29 -55 -12 -29 -47 -116 -59 -150 -7 -18 -16 -29 -21 -25 -4 5 -5 2 -1
-5 5 -8 0 -20 -12 -30 -10 -9 -17 -23 -15 -29 3 -7 0 -13 -5 -13 -5 0 -12 -8
-15 -17 -4 -10 -14 -29 -24 -43 -17 -23 -17 -24 1 -17 16 6 17 5 6 -8 -7 -8
-17 -12 -23 -8 -5 3 -7 2 -4 -4 3 -5 -5 -22 -19 -38 -20 -23 -24 -38 -21 -67
3 -23 -1 -45 -9 -55 -18 -24 -19 -225 -2 -256 7 -12 13 -55 14 -96 2 -44 7
-77 15 -81 6 -4 9 -13 5 -19 -4 -6 -2 -21 5 -33 7 -12 13 -29 13 -38 3 -29 29
-95 49 -122 11 -14 17 -31 13 -36 -3 -6 -1 -14 5 -18 8 -4 9 -3 5 4 -5 8 2 12
19 12 23 0 25 3 19 27 -3 16 -8 35 -11 43 -12 34 -13 110 0 110 9 0 8 3 -2 9
-11 7 -11 12 0 32 7 13 12 27 11 31 -1 5 5 8 14 8 8 0 12 5 9 10 -3 6 1 10 10
10 11 0 15 8 13 30 -1 17 -7 30 -12 30 -5 0 -6 3 -3 7 4 3 -2 12 -13 20 -23
16 -26 57 -8 118 6 22 11 50 10 63 -1 12 3 22 8 22 6 0 10 8 10 18 0 10 5 23
11 29 6 6 12 40 13 76 2 54 8 74 32 108 16 23 34 49 39 58 14 22 27 31 39 24
5 -3 6 -1 2 6 -4 6 8 30 26 54 19 23 43 56 53 72 l19 30 12 -51 c7 -33 8 -71
3 -103 -4 -28 -11 -96 -14 -151 -3 -56 -9 -111 -14 -123 -13 -34 -24 -118 -22
-155 2 -22 -4 -41 -17 -55 -11 -12 -27 -44 -36 -70 -9 -27 -23 -61 -31 -77 -8
-16 -15 -38 -15 -48 0 -11 -7 -25 -15 -32 -8 -7 -15 -22 -15 -34 0 -11 -7 -34
-16 -51 -8 -16 -18 -48 -21 -72 -3 -24 -9 -43 -13 -43 -9 0 -90 -183 -90 -204
0 -8 -4 -17 -9 -20 -4 -3 -11 -30 -14 -59 -4 -30 -13 -72 -21 -95 -8 -23 -20
-72 -26 -109 -24 -158 -38 -223 -47 -235 -11 -13 -22 -68 -26 -123 -1 -16 -8
-35 -15 -40 -8 -6 -12 -24 -10 -40 l3 -30 175 -3 175 -2 26 30 c18 20 25 37
22 54 -3 16 2 35 15 51 11 14 25 47 32 74 18 77 198 296 285 347 42 24 48 25
62 11 9 -9 27 -49 41 -89 25 -73 30 -139 32 -405 l0 -73 170 0 c94 0 170 3
170 8 0 55 24 248 35 282 24 75 43 198 51 330 4 69 7 129 6 133 -2 5 2 34 9
65 6 32 12 93 13 137 1 76 2 79 26 85 28 7 36 40 44 180 2 41 4 81 5 88 0 6 8
12 16 12 8 0 17 11 21 25 3 14 14 29 23 34 14 9 16 63 19 570 2 526 1 561 -15
576 -10 8 -46 40 -80 70 -35 30 -67 55 -71 55 -5 0 -17 8 -28 18 -48 42 -85
62 -117 62 -38 0 -61 20 -71 62 -8 36 4 88 21 88 10 0 13 11 12 43 -1 27 5 57
19 83 30 60 32 194 3 269 -24 62 -52 115 -60 115 -5 0 -11 12 -13 27 -2 21
-15 33 -63 57 -69 35 -78 38 -157 41 -44 2 -61 -2 -77 -16z m-51 -274 c-7 -9
-15 -13 -17 -11 -7 7 7 26 19 26 6 0 6 -6 -2 -15z m354 -60 c9 -24 -23 -31
-42 -9 -16 17 -16 17 1 5 14 -11 17 -11 17 3 0 20 16 21 24 1z m14 -53 c-1
-15 1 -33 6 -40 11 -18 -5 -14 -21 6 -13 16 -13 15 -7 -7 5 -21 4 -22 -9 -10
-8 8 -12 19 -9 24 4 6 5 19 3 30 l-3 20 17 -20 c13 -15 15 -16 12 -3 -5 14 0
28 10 28 2 0 2 -13 1 -28z m-191 -28 c-3 -3 -12 -4 -19 -1 -8 3 -5 6 6 6 11 1
17 -2 13 -5z m83 -34 c-8 -5 -10 -10 -3 -10 6 0 9 -9 6 -21 -4 -14 -8 -17 -13
-9 -6 10 -7 29 -1 48 1 1 7 2 14 2 8 0 7 -4 -3 -10z m87 -16 c-3 -3 -12 -4
-19 -1 -8 3 -5 6 6 6 11 1 17 -2 13 -5z m-706 -922 c-7 -2 -18 1 -23 6 -8 8
-4 9 13 5 13 -4 18 -8 10 -11z m1074 -22 c3 -5 1 -10 -4 -10 -6 0 -11 5 -11
10 0 6 2 10 4 10 3 0 8 -4 11 -10z m-25 -10 c0 -5 -7 -10 -16 -10 -8 0 -12 -5
-9 -11 4 -6 14 -8 22 -5 8 3 11 1 8 -4 -6 -10 -35 -14 -35 -6 0 2 -3 11 -6 19
-3 10 2 17 13 20 10 3 19 5 21 6 1 0 2 -3 2 -9z m-1058 -32 c-8 -8 -9 -4 -5
13 4 13 8 18 11 10 2 -7 -1 -18 -6 -23z m834 -865 c-6 -6 -36 51 -36 69 0 7 9
-5 21 -26 11 -21 18 -40 15 -43z"/>
<path d="M1638 2759 c-150 -17 -225 -141 -148 -247 37 -51 110 -87 222 -109
35 -7 60 -36 56 -65 -2 -18 -12 -25 -44 -32 -51 -10 -92 12 -101 57 l-6 29
-78 -4 c-43 -2 -82 -8 -87 -13 -15 -15 11 -101 39 -132 41 -45 96 -63 197 -64
77 -1 99 3 145 24 31 14 61 36 68 48 7 13 18 30 26 37 8 8 13 37 13 79 0 51
-5 72 -22 96 -42 60 -45 61 -225 112 -69 20 -84 46 -39 66 35 16 72 4 93 -32
18 -30 19 -30 91 -27 40 1 77 7 83 14 10 13 -13 78 -39 108 -43 48 -131 68
-244 55z"/>
<path d="M557 2753 c-4 -3 -7 -89 -7 -189 0 -115 -4 -192 -11 -208 -22 -48
-66 -43 -77 8 -3 17 -5 34 -4 39 2 7 -15 11 -33 7 -5 -1 -30 -4 -55 -6 -80 -7
-90 -12 -90 -42 1 -70 51 -144 117 -171 30 -12 158 -18 194 -9 9 2 29 12 45
23 88 57 94 80 94 339 l0 216 -83 0 c-46 0 -87 -3 -90 -7z"/>
<path d="M834 2745 c-4 -8 -4 -104 -3 -214 l4 -199 38 -55 c54 -78 102 -99
227 -101 74 0 104 4 135 18 60 29 110 88 123 147 12 52 17 375 6 403 -5 13
-22 16 -85 16 -55 0 -81 -4 -84 -12 -3 -7 -6 -98 -8 -201 -2 -149 -6 -190 -17
-197 -8 -5 -18 -6 -24 -3 -5 3 -6 1 -2 -6 10 -16 -18 -24 -60 -17 -25 5 -41
16 -54 39 -18 29 -20 51 -20 215 l0 182 -85 0 c-67 0 -87 -3 -91 -15z"/>
<path d="M1993 2753 c-9 -3 -13 -28 -13 -73 0 -80 3 -83 103 -79 l62 3 3 -199
c1 -111 7 -204 12 -209 13 -13 170 -14 171 -1 0 6 0 93 0 195 -1 102 3 191 8
199 6 10 31 14 85 14 49 0 76 4 77 11 1 11 1 109 0 133 -1 9 -64 12 -248 12
-137 0 -254 -3 -260 -6z"/>
<path d="M215 2129 c-4 -6 -5 -12 -2 -15 2 -3 7 2 10 11 7 17 1 20 -8 4z"/>
<path d="M56 2038 c3 -5 10 -6 15 -3 13 9 11 12 -6 12 -8 0 -12 -4 -9 -9z"/>
<path d="M396 1895 c-9 -26 -7 -32 5 -12 6 10 9 21 6 23 -2 3 -7 -2 -11 -11z"/>
<path d="M350 1845 c0 -7 30 -13 34 -7 3 4 -4 9 -15 9 -10 1 -19 0 -19 -2z"/>
<path d="M126 1685 c-3 -8 -1 -15 4 -15 6 0 10 7 10 15 0 8 -2 15 -4 15 -2 0
-6 -7 -10 -15z"/>
<path d="M455 1688 c10 -24 -30 -32 -129 -25 -44 3 -102 3 -128 0 l-48 -6 0
-278 c0 -184 4 -280 11 -284 20 -13 258 -13 302 -1 23 7 54 12 69 11 15 0 26
2 25 5 -1 4 15 23 35 42 63 62 72 89 74 216 1 102 -1 118 -24 165 -27 56 -77
107 -104 107 -10 0 -18 5 -18 10 0 6 -7 10 -15 10 -8 0 -24 10 -35 23 -15 15
-19 17 -15 5z m-34 -178 c29 -8 40 -18 52 -48 20 -52 22 -156 2 -175 -8 -9
-15 -20 -15 -26 0 -11 -21 -18 -82 -25 l-38 -4 0 144 c0 162 -3 157 81 134z"/>
<path d="M903 1658 c-18 -6 -33 -15 -33 -19 0 -5 -7 -9 -15 -9 -21 0 -67 -46
-96 -95 -22 -36 -24 -52 -24 -160 0 -110 2 -123 25 -160 33 -53 65 -83 122
-110 40 -19 62 -23 135 -21 169 3 255 74 285 235 10 53 9 72 -8 139 -10 42
-18 83 -17 90 0 7 -1 12 -3 9 -2 -2 -26 17 -53 42 -33 31 -66 51 -96 59 -54
14 -177 14 -222 0z m189 -165 c17 -18 22 -38 26 -101 5 -91 -12 -136 -56 -153
-27 -10 -90 -8 -109 4 -25 16 -44 79 -42 139 4 102 34 139 111 136 36 -1 53
-8 70 -25z"/>
<path d="M1646 1652 c-6 -10 -6 -521 0 -543 4 -14 19 -17 92 -15 l87 1 3 283
2 282 -89 0 c-50 0 -92 -4 -95 -8z"/>
<path d="M1898 1628 c-2 -18 -1 -52 1 -75 l3 -43 84 0 84 0 2 -207 3 -208 88
-3 87 -3 0 211 0 210 85 0 85 0 0 75 0 75 -259 0 -260 0 -3 -32z"/>
<path d="M2476 1643 c-3 -10 -3 -38 -1 -63 2 -25 9 -99 15 -165 6 -66 13 -126
15 -132 7 -21 102 -17 113 5 12 21 36 285 31 332 l-4 35 -82 3 c-71 2 -82 1
-87 -15z"/>
<path d="M25 1581 c-3 -5 -2 -12 3 -15 5 -3 9 1 9 9 0 17 -3 19 -12 6z"/>
<path d="M2492 1168 l3 -73 71 -2 c50 -2 73 1 76 10 2 6 2 40 0 75 l-4 62 -74
0 -75 0 3 -72z"/>
</g>
</svg>
